<svg xmlns="http://www.w3.org/2000/svg" width="1200" height="630" viewBox="0 0 1200 630">
  <defs>
    <radialGradient id="glow" cx="78%" cy="42%" r="60%">
      <stop offset="0%" stop-color="#ec5e27" stop-opacity="0.16"/>
      <stop offset="70%" stop-color="#ec5e27" stop-opacity="0"/>
    </radialGradient>
  </defs>
  <rect width="1200" height="630" fill="#163832"/>
  <rect width="1200" height="630" fill="url(#glow)"/>
  <g><circle cx="40.0" cy="30.0" r="1.6" fill="#daf1de" opacity="0.15"/><circle cx="88.7" cy="30.0" r="1.6" fill="#daf1de" opacity="0.15"/><circle cx="137.4" cy="30.0" r="1.6" fill="#daf1de" opacity="0.15"/><circle cx="186.1" cy="30.0" r="1.6" fill="#daf1de" opacity="0.15"/><circle cx="234.8" cy="30.0" r="1.6" fill="#daf1de" opacity="0.15"/><circle cx="283.5" cy="30.0" r="1.6" fill="#daf1de" opacity="0.15"/><circle cx="332.2" cy="30.0" r="1.6" fill="#daf1de" opacity="0.15"/><circle cx="380.9" cy="30.0" r="1.6" fill="#daf1de" opacity="0.15"/><circle cx="429.6" cy="30.0" r="1.6" fill="#daf1de" opacity="0.15"/><circle cx="478.3" cy="30.0" r="1.6" fill="#daf1de" opacity="0.15"/><circle cx="527.0" cy="30.0" r="1.6" fill="#daf1de" opacity="0.15"/><circle cx="575.7" cy="30.0" r="1.6" fill="#daf1de" opacity="0.15"/><circle cx="624.3" cy="30.0" r="1.6" fill="#daf1de" opacity="0.15"/><circle cx="673.0" cy="30.0" r="1.6" fill="#daf1de" opacity="0.15"/><circle cx="721.7" cy="30.0" r="1.6" fill="#daf1de" opacity="0.15"/><circle cx="770.4" cy="30.0" r="1.6" fill="#daf1de" opacity="0.15"/><circle cx="819.1" cy="30.0" r="1.6" fill="#daf1de" opacity="0.15"/><circle cx="867.8" cy="30.0" r="1.6" fill="#daf1de" opacity="0.15"/><circle cx="916.5" cy="30.0" r="1.6" fill="#daf1de" opacity="0.15"/><circle cx="965.2" cy="30.0" r="1.6" fill="#daf1de" opacity="0.15"/><circle cx="1013.9" cy="30.0" r="1.6" fill="#daf1de" opacity="0.15"/><circle cx="1062.6" cy="30.0" r="1.6" fill="#daf1de" opacity="0.15"/><circle cx="1111.3" cy="30.0" r="1.6" fill="#daf1de" opacity="0.15"/><circle cx="1160.0" cy="30.0" r="1.6" fill="#daf1de" opacity="0.15"/><circle cx="40.0" cy="77.5" r="1.6" fill="#daf1de" opacity="0.15"/><circle cx="88.7" cy="77.5" r="1.6" fill="#daf1de" opacity="0.15"/><circle cx="137.4" cy="77.5" r="1.6" fill="#daf1de" opacity="0.15"/><circle cx="186.1" cy="77.5" r="1.6" fill="#daf1de" opacity="0.15"/><circle cx="234.8" cy="77.5" r="1.6" fill="#daf1de" opacity="0.15"/><circle cx="283.5" cy="77.5" r="1.6" fill="#daf1de" opacity="0.15"/><circle cx="332.2" cy="77.5" r="1.6" fill="#daf1de" opacity="0.15"/><circle cx="380.9" cy="77.5" r="1.6" fill="#daf1de" opacity="0.15"/><circle cx="429.6" cy="77.5" r="1.6" fill="#daf1de" opacity="0.15"/><circle cx="478.3" cy="77.5" r="1.6" fill="#daf1de" opacity="0.15"/><circle cx="527.0" cy="77.5" r="1.6" fill="#daf1de" opacity="0.15"/><circle cx="575.7" cy="77.5" r="1.6" fill="#daf1de" opacity="0.15"/><circle cx="624.3" cy="77.5" r="1.6" fill="#daf1de" opacity="0.15"/><circle cx="673.0" cy="77.5" r="1.6" fill="#daf1de" opacity="0.15"/><circle cx="721.7" cy="77.5" r="1.6" fill="#daf1de" opacity="0.15"/><circle cx="770.4" cy="77.5" r="1.6" fill="#daf1de" opacity="0.15"/><circle cx="819.1" cy="77.5" r="1.6" fill="#daf1de" opacity="0.15"/><circle cx="867.8" cy="77.5" r="1.6" fill="#daf1de" opacity="0.15"/><circle cx="916.5" cy="77.5" r="1.6" fill="#daf1de" opacity="0.15"/><circle cx="965.2" cy="77.5" r="1.6" fill="#daf1de" opacity="0.15"/><circle cx="1013.9" cy="77.5" r="1.6" fill="#daf1de" opacity="0.15"/><circle cx="1062.6" cy="77.5" r="1.6" fill="#daf1de" opacity="0.15"/><circle cx="1111.3" cy="77.5" r="1.6" fill="#daf1de" opacity="0.15"/><circle cx="1160.0" cy="77.5" r="1.6" fill="#daf1de" opacity="0.15"/><circle cx="40.0" cy="125.0" r="1.6" fill="#daf1de" opacity="0.15"/><circle cx="88.7" cy="125.0" r="1.6" fill="#daf1de" opacity="0.15"/><circle cx="137.4" cy="125.0" r="1.6" fill="#daf1de" opacity="0.15"/><circle cx="186.1" cy="125.0" r="1.6" fill="#daf1de" opacity="0.15"/><circle cx="234.8" cy="125.0" r="1.6" fill="#daf1de" opacity="0.15"/><circle cx="283.5" cy="125.0" r="1.6" fill="#daf1de" opacity="0.15"/><circle cx="332.2" cy="125.0" r="1.6" fill="#daf1de" opacity="0.15"/><circle cx="380.9" cy="125.0" r="1.6" fill="#daf1de" opacity="0.15"/><circle cx="429.6" cy="125.0" r="1.6" fill="#daf1de" opacity="0.15"/><circle cx="478.3" cy="125.0" r="1.6" fill="#daf1de" opacity="0.15"/><circle cx="527.0" cy="125.0" r="1.6" fill="#daf1de" opacity="0.15"/><circle cx="575.7" cy="125.0" r="1.6" fill="#daf1de" opacity="0.15"/><circle cx="624.3" cy="125.0" r="1.6" fill="#daf1de" opacity="0.15"/><circle cx="673.0" cy="125.0" r="1.6" fill="#daf1de" opacity="0.15"/><circle cx="721.7" cy="125.0" r="1.6" fill="#daf1de" opacity="0.15"/><circle cx="770.4" cy="125.0" r="1.6" fill="#daf1de" opacity="0.15"/><circle cx="819.1" cy="125.0" r="1.6" fill="#daf1de" opacity="0.15"/><circle cx="867.8" cy="125.0" r="1.6" fill="#daf1de" opacity="0.15"/><circle cx="916.5" cy="125.0" r="1.6" fill="#daf1de" opacity="0.15"/><circle cx="965.2" cy="125.0" r="1.6" fill="#daf1de" opacity="0.15"/><circle cx="1013.9" cy="125.0" r="1.6" fill="#daf1de" opacity="0.15"/><circle cx="1062.6" cy="125.0" r="1.6" fill="#daf1de" opacity="0.15"/><circle cx="1111.3" cy="125.0" r="1.6" fill="#daf1de" opacity="0.15"/><circle cx="1160.0" cy="125.0" r="1.6" fill="#daf1de" opacity="0.15"/><circle cx="40.0" cy="172.5" r="1.6" fill="#daf1de" opacity="0.15"/><circle cx="88.7" cy="172.5" r="1.6" fill="#daf1de" opacity="0.15"/><circle cx="137.4" cy="172.5" r="1.6" fill="#daf1de" opacity="0.15"/><circle cx="186.1" cy="172.5" r="1.6" fill="#daf1de" opacity="0.15"/><circle cx="234.8" cy="172.5" r="1.6" fill="#daf1de" opacity="0.15"/><circle cx="283.5" cy="172.5" r="1.6" fill="#daf1de" opacity="0.15"/><circle cx="332.2" cy="172.5" r="1.6" fill="#daf1de" opacity="0.15"/><circle cx="380.9" cy="172.5" r="1.6" fill="#daf1de" opacity="0.15"/><circle cx="429.6" cy="172.5" r="1.6" fill="#daf1de" opacity="0.15"/><circle cx="478.3" cy="172.5" r="1.6" fill="#daf1de" opacity="0.15"/><circle cx="527.0" cy="172.5" r="1.6" fill="#daf1de" opacity="0.15"/><circle cx="575.7" cy="172.5" r="1.6" fill="#daf1de" opacity="0.15"/><circle cx="624.3" cy="172.5" r="1.6" fill="#daf1de" opacity="0.15"/><circle cx="673.0" cy="172.5" r="1.6" fill="#daf1de" opacity="0.15"/><circle cx="721.7" cy="172.5" r="1.6" fill="#daf1de" opacity="0.15"/><circle cx="770.4" cy="172.5" r="2.6" fill="#ec5e27" opacity="0.8"/><circle cx="819.1" cy="172.5" r="1.6" fill="#daf1de" opacity="0.15"/><circle cx="867.8" cy="172.5" r="1.6" fill="#daf1de" opacity="0.15"/><circle cx="916.5" cy="172.5" r="2.6" fill="#ec5e27" opacity="0.8"/><circle cx="965.2" cy="172.5" r="1.6" fill="#daf1de" opacity="0.15"/><circle cx="1013.9" cy="172.5" r="1.6" fill="#daf1de" opacity="0.15"/><circle cx="1062.6" cy="172.5" r="1.6" fill="#daf1de" opacity="0.15"/><circle cx="1111.3" cy="172.5" r="1.6" fill="#daf1de" opacity="0.15"/><circle cx="1160.0" cy="172.5" r="1.6" fill="#daf1de" opacity="0.15"/><circle cx="40.0" cy="220.0" r="1.6" fill="#daf1de" opacity="0.15"/><circle cx="88.7" cy="220.0" r="1.6" fill="#daf1de" opacity="0.15"/><circle cx="137.4" cy="220.0" r="1.6" fill="#daf1de" opacity="0.15"/><circle cx="186.1" cy="220.0" r="1.6" fill="#daf1de" opacity="0.15"/><circle cx="234.8" cy="220.0" r="1.6" fill="#daf1de" opacity="0.15"/><circle cx="283.5" cy="220.0" r="1.6" fill="#daf1de" opacity="0.15"/><circle cx="332.2" cy="220.0" r="1.6" fill="#daf1de" opacity="0.15"/><circle cx="380.9" cy="220.0" r="1.6" fill="#daf1de" opacity="0.15"/><circle cx="429.6" cy="220.0" r="1.6" fill="#daf1de" opacity="0.15"/><circle cx="478.3" cy="220.0" r="1.6" fill="#daf1de" opacity="0.15"/><circle cx="527.0" cy="220.0" r="1.6" fill="#daf1de" opacity="0.15"/><circle cx="575.7" cy="220.0" r="1.6" fill="#daf1de" opacity="0.15"/><circle cx="624.3" cy="220.0" r="1.6" fill="#daf1de" opacity="0.15"/><circle cx="673.0" cy="220.0" r="1.6" fill="#daf1de" opacity="0.15"/><circle cx="721.7" cy="220.0" r="1.6" fill="#daf1de" opacity="0.15"/><circle cx="770.4" cy="220.0" r="1.6" fill="#daf1de" opacity="0.15"/><circle cx="819.1" cy="220.0" r="1.6" fill="#daf1de" opacity="0.15"/><circle cx="867.8" cy="220.0" r="2.6" fill="#ec5e27" opacity="0.8"/><circle cx="916.5" cy="220.0" r="1.6" fill="#daf1de" opacity="0.15"/><circle cx="965.2" cy="220.0" r="1.6" fill="#daf1de" opacity="0.15"/><circle cx="1013.9" cy="220.0" r="2.6" fill="#ec5e27" opacity="0.8"/><circle cx="1062.6" cy="220.0" r="1.6" fill="#daf1de" opacity="0.15"/><circle cx="1111.3" cy="220.0" r="1.6" fill="#daf1de" opacity="0.15"/><circle cx="1160.0" cy="220.0" r="1.6" fill="#daf1de" opacity="0.15"/><circle cx="40.0" cy="267.5" r="1.6" fill="#daf1de" opacity="0.15"/><circle cx="88.7" cy="267.5" r="1.6" fill="#daf1de" opacity="0.15"/><circle cx="137.4" cy="267.5" r="1.6" fill="#daf1de" opacity="0.15"/><circle cx="186.1" cy="267.5" r="1.6" fill="#daf1de" opacity="0.15"/><circle cx="234.8" cy="267.5" r="1.6" fill="#daf1de" opacity="0.15"/><circle cx="283.5" cy="267.5" r="1.6" fill="#daf1de" opacity="0.15"/><circle cx="332.2" cy="267.5" r="1.6" fill="#daf1de" opacity="0.15"/><circle cx="380.9" cy="267.5" r="1.6" fill="#daf1de" opacity="0.15"/><circle cx="429.6" cy="267.5" r="1.6" fill="#daf1de" opacity="0.15"/><circle cx="478.3" cy="267.5" r="1.6" fill="#daf1de" opacity="0.15"/><circle cx="527.0" cy="267.5" r="1.6" fill="#daf1de" opacity="0.15"/><circle cx="575.7" cy="267.5" r="1.6" fill="#daf1de" opacity="0.15"/><circle cx="624.3" cy="267.5" r="1.6" fill="#daf1de" opacity="0.15"/><circle cx="673.0" cy="267.5" r="1.6" fill="#daf1de" opacity="0.15"/><circle cx="721.7" cy="267.5" r="1.6" fill="#daf1de" opacity="0.15"/><circle cx="770.4" cy="267.5" r="1.6" fill="#daf1de" opacity="0.15"/><circle cx="819.1" cy="267.5" r="2.6" fill="#ec5e27" opacity="0.8"/><circle cx="867.8" cy="267.5" r="1.6" fill="#daf1de" opacity="0.15"/><circle cx="916.5" cy="267.5" r="1.6" fill="#daf1de" opacity="0.15"/><circle cx="965.2" cy="267.5" r="2.6" fill="#ec5e27" opacity="0.8"/><circle cx="1013.9" cy="267.5" r="1.6" fill="#daf1de" opacity="0.15"/><circle cx="1062.6" cy="267.5" r="1.6" fill="#daf1de" opacity="0.15"/><circle cx="1111.3" cy="267.5" r="1.6" fill="#daf1de" opacity="0.15"/><circle cx="1160.0" cy="267.5" r="1.6" fill="#daf1de" opacity="0.15"/><circle cx="40.0" cy="315.0" r="1.6" fill="#daf1de" opacity="0.15"/><circle cx="88.7" cy="315.0" r="1.6" fill="#daf1de" opacity="0.15"/><circle cx="137.4" cy="315.0" r="1.6" fill="#daf1de" opacity="0.15"/><circle cx="186.1" cy="315.0" r="1.6" fill="#daf1de" opacity="0.15"/><circle cx="234.8" cy="315.0" r="1.6" fill="#daf1de" opacity="0.15"/><circle cx="283.5" cy="315.0" r="1.6" fill="#daf1de" opacity="0.15"/><circle cx="332.2" cy="315.0" r="1.6" fill="#daf1de" opacity="0.15"/><circle cx="380.9" cy="315.0" r="1.6" fill="#daf1de" opacity="0.15"/><circle cx="429.6" cy="315.0" r="1.6" fill="#daf1de" opacity="0.15"/><circle cx="478.3" cy="315.0" r="1.6" fill="#daf1de" opacity="0.15"/><circle cx="527.0" cy="315.0" r="1.6" fill="#daf1de" opacity="0.15"/><circle cx="575.7" cy="315.0" r="1.6" fill="#daf1de" opacity="0.15"/><circle cx="624.3" cy="315.0" r="1.6" fill="#daf1de" opacity="0.15"/><circle cx="673.0" cy="315.0" r="1.6" fill="#daf1de" opacity="0.15"/><circle cx="721.7" cy="315.0" r="1.6" fill="#daf1de" opacity="0.15"/><circle cx="770.4" cy="315.0" r="2.6" fill="#ec5e27" opacity="0.8"/><circle cx="819.1" cy="315.0" r="1.6" fill="#daf1de" opacity="0.15"/><circle cx="867.8" cy="315.0" r="1.6" fill="#daf1de" opacity="0.15"/><circle cx="916.5" cy="315.0" r="2.6" fill="#ec5e27" opacity="0.8"/><circle cx="965.2" cy="315.0" r="1.6" fill="#daf1de" opacity="0.15"/><circle cx="1013.9" cy="315.0" r="1.6" fill="#daf1de" opacity="0.15"/><circle cx="1062.6" cy="315.0" r="1.6" fill="#daf1de" opacity="0.15"/><circle cx="1111.3" cy="315.0" r="1.6" fill="#daf1de" opacity="0.15"/><circle cx="1160.0" cy="315.0" r="1.6" fill="#daf1de" opacity="0.15"/><circle cx="40.0" cy="362.5" r="1.6" fill="#daf1de" opacity="0.15"/><circle cx="88.7" cy="362.5" r="1.6" fill="#daf1de" opacity="0.15"/><circle cx="137.4" cy="362.5" r="1.6" fill="#daf1de" opacity="0.15"/><circle cx="186.1" cy="362.5" r="1.6" fill="#daf1de" opacity="0.15"/><circle cx="234.8" cy="362.5" r="1.6" fill="#daf1de" opacity="0.15"/><circle cx="283.5" cy="362.5" r="1.6" fill="#daf1de" opacity="0.15"/><circle cx="332.2" cy="362.5" r="1.6" fill="#daf1de" opacity="0.15"/><circle cx="380.9" cy="362.5" r="1.6" fill="#daf1de" opacity="0.15"/><circle cx="429.6" cy="362.5" r="1.6" fill="#daf1de" opacity="0.15"/><circle cx="478.3" cy="362.5" r="1.6" fill="#daf1de" opacity="0.15"/><circle cx="527.0" cy="362.5" r="1.6" fill="#daf1de" opacity="0.15"/><circle cx="575.7" cy="362.5" r="1.6" fill="#daf1de" opacity="0.15"/><circle cx="624.3" cy="362.5" r="1.6" fill="#daf1de" opacity="0.15"/><circle cx="673.0" cy="362.5" r="1.6" fill="#daf1de" opacity="0.15"/><circle cx="721.7" cy="362.5" r="1.6" fill="#daf1de" opacity="0.15"/><circle cx="770.4" cy="362.5" r="1.6" fill="#daf1de" opacity="0.15"/><circle cx="819.1" cy="362.5" r="1.6" fill="#daf1de" opacity="0.15"/><circle cx="867.8" cy="362.5" r="2.6" fill="#ec5e27" opacity="0.8"/><circle cx="916.5" cy="362.5" r="1.6" fill="#daf1de" opacity="0.15"/><circle cx="965.2" cy="362.5" r="1.6" fill="#daf1de" opacity="0.15"/><circle cx="1013.9" cy="362.5" r="2.6" fill="#ec5e27" opacity="0.8"/><circle cx="1062.6" cy="362.5" r="1.6" fill="#daf1de" opacity="0.15"/><circle cx="1111.3" cy="362.5" r="1.6" fill="#daf1de" opacity="0.15"/><circle cx="1160.0" cy="362.5" r="1.6" fill="#daf1de" opacity="0.15"/><circle cx="40.0" cy="410.0" r="1.6" fill="#daf1de" opacity="0.15"/><circle cx="88.7" cy="410.0" r="1.6" fill="#daf1de" opacity="0.15"/><circle cx="137.4" cy="410.0" r="1.6" fill="#daf1de" opacity="0.15"/><circle cx="186.1" cy="410.0" r="1.6" fill="#daf1de" opacity="0.15"/><circle cx="234.8" cy="410.0" r="1.6" fill="#daf1de" opacity="0.15"/><circle cx="283.5" cy="410.0" r="1.6" fill="#daf1de" opacity="0.15"/><circle cx="332.2" cy="410.0" r="1.6" fill="#daf1de" opacity="0.15"/><circle cx="380.9" cy="410.0" r="1.6" fill="#daf1de" opacity="0.15"/><circle cx="429.6" cy="410.0" r="1.6" fill="#daf1de" opacity="0.15"/><circle cx="478.3" cy="410.0" r="1.6" fill="#daf1de" opacity="0.15"/><circle cx="527.0" cy="410.0" r="1.6" fill="#daf1de" opacity="0.15"/><circle cx="575.7" cy="410.0" r="1.6" fill="#daf1de" opacity="0.15"/><circle cx="624.3" cy="410.0" r="1.6" fill="#daf1de" opacity="0.15"/><circle cx="673.0" cy="410.0" r="1.6" fill="#daf1de" opacity="0.15"/><circle cx="721.7" cy="410.0" r="1.6" fill="#daf1de" opacity="0.15"/><circle cx="770.4" cy="410.0" r="1.6" fill="#daf1de" opacity="0.15"/><circle cx="819.1" cy="410.0" r="2.6" fill="#ec5e27" opacity="0.8"/><circle cx="867.8" cy="410.0" r="1.6" fill="#daf1de" opacity="0.15"/><circle cx="916.5" cy="410.0" r="1.6" fill="#daf1de" opacity="0.15"/><circle cx="965.2" cy="410.0" r="2.6" fill="#ec5e27" opacity="0.8"/><circle cx="1013.9" cy="410.0" r="1.6" fill="#daf1de" opacity="0.15"/><circle cx="1062.6" cy="410.0" r="1.6" fill="#daf1de" opacity="0.15"/><circle cx="1111.3" cy="410.0" r="1.6" fill="#daf1de" opacity="0.15"/><circle cx="1160.0" cy="410.0" r="1.6" fill="#daf1de" opacity="0.15"/><circle cx="40.0" cy="457.5" r="1.6" fill="#daf1de" opacity="0.15"/><circle cx="88.7" cy="457.5" r="1.6" fill="#daf1de" opacity="0.15"/><circle cx="137.4" cy="457.5" r="1.6" fill="#daf1de" opacity="0.15"/><circle cx="186.1" cy="457.5" r="1.6" fill="#daf1de" opacity="0.15"/><circle cx="234.8" cy="457.5" r="1.6" fill="#daf1de" opacity="0.15"/><circle cx="283.5" cy="457.5" r="1.6" fill="#daf1de" opacity="0.15"/><circle cx="332.2" cy="457.5" r="1.6" fill="#daf1de" opacity="0.15"/><circle cx="380.9" cy="457.5" r="1.6" fill="#daf1de" opacity="0.15"/><circle cx="429.6" cy="457.5" r="1.6" fill="#daf1de" opacity="0.15"/><circle cx="478.3" cy="457.5" r="1.6" fill="#daf1de" opacity="0.15"/><circle cx="527.0" cy="457.5" r="1.6" fill="#daf1de" opacity="0.15"/><circle cx="575.7" cy="457.5" r="1.6" fill="#daf1de" opacity="0.15"/><circle cx="624.3" cy="457.5" r="1.6" fill="#daf1de" opacity="0.15"/><circle cx="673.0" cy="457.5" r="1.6" fill="#daf1de" opacity="0.15"/><circle cx="721.7" cy="457.5" r="1.6" fill="#daf1de" opacity="0.15"/><circle cx="770.4" cy="457.5" r="1.6" fill="#daf1de" opacity="0.15"/><circle cx="819.1" cy="457.5" r="1.6" fill="#daf1de" opacity="0.15"/><circle cx="867.8" cy="457.5" r="1.6" fill="#daf1de" opacity="0.15"/><circle cx="916.5" cy="457.5" r="1.6" fill="#daf1de" opacity="0.15"/><circle cx="965.2" cy="457.5" r="1.6" fill="#daf1de" opacity="0.15"/><circle cx="1013.9" cy="457.5" r="1.6" fill="#daf1de" opacity="0.15"/><circle cx="1062.6" cy="457.5" r="1.6" fill="#daf1de" opacity="0.15"/><circle cx="1111.3" cy="457.5" r="1.6" fill="#daf1de" opacity="0.15"/><circle cx="1160.0" cy="457.5" r="1.6" fill="#daf1de" opacity="0.15"/><circle cx="40.0" cy="505.0" r="1.6" fill="#daf1de" opacity="0.15"/><circle cx="88.7" cy="505.0" r="1.6" fill="#daf1de" opacity="0.15"/><circle cx="137.4" cy="505.0" r="1.6" fill="#daf1de" opacity="0.15"/><circle cx="186.1" cy="505.0" r="1.6" fill="#daf1de" opacity="0.15"/><circle cx="234.8" cy="505.0" r="1.6" fill="#daf1de" opacity="0.15"/><circle cx="283.5" cy="505.0" r="1.6" fill="#daf1de" opacity="0.15"/><circle cx="332.2" cy="505.0" r="1.6" fill="#daf1de" opacity="0.15"/><circle cx="380.9" cy="505.0" r="1.6" fill="#daf1de" opacity="0.15"/><circle cx="429.6" cy="505.0" r="1.6" fill="#daf1de" opacity="0.15"/><circle cx="478.3" cy="505.0" r="1.6" fill="#daf1de" opacity="0.15"/><circle cx="527.0" cy="505.0" r="1.6" fill="#daf1de" opacity="0.15"/><circle cx="575.7" cy="505.0" r="1.6" fill="#daf1de" opacity="0.15"/><circle cx="624.3" cy="505.0" r="1.6" fill="#daf1de" opacity="0.15"/><circle cx="673.0" cy="505.0" r="1.6" fill="#daf1de" opacity="0.15"/><circle cx="721.7" cy="505.0" r="1.6" fill="#daf1de" opacity="0.15"/><circle cx="770.4" cy="505.0" r="1.6" fill="#daf1de" opacity="0.15"/><circle cx="819.1" cy="505.0" r="1.6" fill="#daf1de" opacity="0.15"/><circle cx="867.8" cy="505.0" r="1.6" fill="#daf1de" opacity="0.15"/><circle cx="916.5" cy="505.0" r="1.6" fill="#daf1de" opacity="0.15"/><circle cx="965.2" cy="505.0" r="1.6" fill="#daf1de" opacity="0.15"/><circle cx="1013.9" cy="505.0" r="1.6" fill="#daf1de" opacity="0.15"/><circle cx="1062.6" cy="505.0" r="1.6" fill="#daf1de" opacity="0.15"/><circle cx="1111.3" cy="505.0" r="1.6" fill="#daf1de" opacity="0.15"/><circle cx="1160.0" cy="505.0" r="1.6" fill="#daf1de" opacity="0.15"/><circle cx="40.0" cy="552.5" r="1.6" fill="#daf1de" opacity="0.15"/><circle cx="88.7" cy="552.5" r="1.6" fill="#daf1de" opacity="0.15"/><circle cx="137.4" cy="552.5" r="1.6" fill="#daf1de" opacity="0.15"/><circle cx="186.1" cy="552.5" r="1.6" fill="#daf1de" opacity="0.15"/><circle cx="234.8" cy="552.5" r="1.6" fill="#daf1de" opacity="0.15"/><circle cx="283.5" cy="552.5" r="1.6" fill="#daf1de" opacity="0.15"/><circle cx="332.2" cy="552.5" r="1.6" fill="#daf1de" opacity="0.15"/><circle cx="380.9" cy="552.5" r="1.6" fill="#daf1de" opacity="0.15"/><circle cx="429.6" cy="552.5" r="1.6" fill="#daf1de" opacity="0.15"/><circle cx="478.3" cy="552.5" r="1.6" fill="#daf1de" opacity="0.15"/><circle cx="527.0" cy="552.5" r="1.6" fill="#daf1de" opacity="0.15"/><circle cx="575.7" cy="552.5" r="1.6" fill="#daf1de" opacity="0.15"/><circle cx="624.3" cy="552.5" r="1.6" fill="#daf1de" opacity="0.15"/><circle cx="673.0" cy="552.5" r="1.6" fill="#daf1de" opacity="0.15"/><circle cx="721.7" cy="552.5" r="1.6" fill="#daf1de" opacity="0.15"/><circle cx="770.4" cy="552.5" r="1.6" fill="#daf1de" opacity="0.15"/><circle cx="819.1" cy="552.5" r="1.6" fill="#daf1de" opacity="0.15"/><circle cx="867.8" cy="552.5" r="1.6" fill="#daf1de" opacity="0.15"/><circle cx="916.5" cy="552.5" r="1.6" fill="#daf1de" opacity="0.15"/><circle cx="965.2" cy="552.5" r="1.6" fill="#daf1de" opacity="0.15"/><circle cx="1013.9" cy="552.5" r="1.6" fill="#daf1de" opacity="0.15"/><circle cx="1062.6" cy="552.5" r="1.6" fill="#daf1de" opacity="0.15"/><circle cx="1111.3" cy="552.5" r="1.6" fill="#daf1de" opacity="0.15"/><circle cx="1160.0" cy="552.5" r="1.6" fill="#daf1de" opacity="0.15"/><circle cx="40.0" cy="600.0" r="1.6" fill="#daf1de" opacity="0.15"/><circle cx="88.7" cy="600.0" r="1.6" fill="#daf1de" opacity="0.15"/><circle cx="137.4" cy="600.0" r="1.6" fill="#daf1de" opacity="0.15"/><circle cx="186.1" cy="600.0" r="1.6" fill="#daf1de" opacity="0.15"/><circle cx="234.8" cy="600.0" r="1.6" fill="#daf1de" opacity="0.15"/><circle cx="283.5" cy="600.0" r="1.6" fill="#daf1de" opacity="0.15"/><circle cx="332.2" cy="600.0" r="1.6" fill="#daf1de" opacity="0.15"/><circle cx="380.9" cy="600.0" r="1.6" fill="#daf1de" opacity="0.15"/><circle cx="429.6" cy="600.0" r="1.6" fill="#daf1de" opacity="0.15"/><circle cx="478.3" cy="600.0" r="1.6" fill="#daf1de" opacity="0.15"/><circle cx="527.0" cy="600.0" r="1.6" fill="#daf1de" opacity="0.15"/><circle cx="575.7" cy="600.0" r="1.6" fill="#daf1de" opacity="0.15"/><circle cx="624.3" cy="600.0" r="1.6" fill="#daf1de" opacity="0.15"/><circle cx="673.0" cy="600.0" r="1.6" fill="#daf1de" opacity="0.15"/><circle cx="721.7" cy="600.0" r="1.6" fill="#daf1de" opacity="0.15"/><circle cx="770.4" cy="600.0" r="1.6" fill="#daf1de" opacity="0.15"/><circle cx="819.1" cy="600.0" r="1.6" fill="#daf1de" opacity="0.15"/><circle cx="867.8" cy="600.0" r="1.6" fill="#daf1de" opacity="0.15"/><circle cx="916.5" cy="600.0" r="1.6" fill="#daf1de" opacity="0.15"/><circle cx="965.2" cy="600.0" r="1.6" fill="#daf1de" opacity="0.15"/><circle cx="1013.9" cy="600.0" r="1.6" fill="#daf1de" opacity="0.15"/><circle cx="1062.6" cy="600.0" r="1.6" fill="#daf1de" opacity="0.15"/><circle cx="1111.3" cy="600.0" r="1.6" fill="#daf1de" opacity="0.15"/><circle cx="1160.0" cy="600.0" r="1.6" fill="#daf1de" opacity="0.15"/></g>
  <rect x="96" y="120" width="3" height="380" fill="#ec5e27" opacity="0.9"/>
  <text x="132" y="168" font-family="'JetBrains Mono', monospace" font-size="19" letter-spacing="3" fill="#ec5e27">ПРИВЕТ, Я — МАРАТ</text>
  <text x="128" y="266" font-family="'Arial', sans-serif" font-weight="700" font-size="64" fill="#daf1de">Baktiyar uulu</text>
  <text x="128" y="341" font-family="'Arial', sans-serif" font-weight="700" font-size="64" fill="#ec5e27">Marat</text>
  <text x="132" y="404" font-family="'JetBrains Mono', monospace" font-size="23" fill="#9dbcad">Frontend &#183; Executive Assistant &#183; SMM</text>
  <text x="132" y="500" font-family="'JetBrains Mono', monospace" font-size="17" letter-spacing="2" fill="#9dbcad">portfolio-marat.vercel.app</text>
</svg>